# xmcd CD database file
#
# Track frame offsets:
#	150
#	17448
#	32804
#	44547
#	58499
#	76330
#	95546
#	110165
#	122268
#	136227
#	152303
#	169526
#	180606
#
# Disc length: 2642 seconds
#
# Revision: 0
# Processed by: cddbd v1.5.1PL0 Copyright (c) Steve Scherf et al.
# Submitted via: CDex 1.40Release
#
DISCID=9f0a500d
DTITLE=Sunday Skifflers - Doing The Skiffle
DYEAR=1900
DGENRE=Country
TTITLE0=RAILROAD BILL
TTITLE1=WALKING THE DOG
TTITLE2=CAKEWALK
TTITLE3=IRENE
TTITLE4=DOWN AT THE TWIST AND SHOUT
TTITLE5=FISHERMAN'S BLUES
TTITLE6=CAJUN GENERALI
TTITLE7=DON'T YOU ROCK ME DADDY-O
TTITLE8=I'M NOT A FOOL
TTITLE9=MULE SKINNER BLUES
TTITLE10=MIDNIGHT SPECIAL
TTITLE11=SPEAK TO THE SKY
TTITLE12=TAKE THIS HAMMER
EXTD=ID3G: 2
EXTT0=
EXTT1=
EXTT2=
EXTT3=
EXTT4=
EXTT5=
EXTT6=
EXTT7=
EXTT8=
EXTT9=
EXTT10=
EXTT11=
EXTT12=
PLAYORDER=
